<svg width="91" height="25" viewBox="0 0 91 25" fill="none" xmlns="http://www.w3.org/2000/svg">
<path d="M25 22.2222C25 22.9589 24.7073 23.6655 24.1864 24.1864C23.6655 24.7073 22.9589 25 22.2222 25H2.77778C2.04107 25 1.33453 24.7073 0.813592 24.1864C0.292658 23.6655 0 22.9589 0 22.2222V2.77778C0 2.04107 0.292658 1.33453 0.813592 0.813592C1.33453 0.292658 2.04107 0 2.77778 0L22.2222 0C22.9589 0 23.6655 0.292658 24.1864 0.813592C24.7073 1.33453 25 2.04107 25 2.77778V22.2222Z" fill="#49B4BB"/>
<path d="M12.5 4.86114C13.4588 4.86114 14.2361 4.08386 14.2361 3.12503C14.2361 2.1662 13.4588 1.38892 12.5 1.38892C11.5412 1.38892 10.7639 2.1662 10.7639 3.12503C10.7639 4.08386 11.5412 4.86114 12.5 4.86114Z" fill="white"/>
<path d="M12.1333 12.6875C14.2951 12.5368 18.7951 12.2236 18.7951 10.1889C18.7951 8.11043 14.3917 7.95626 12.5111 7.89029L12.2993 7.88265C5.13681 7.58057 6.36667 5.86668 7.04306 5.86668C7.23334 6.03751 7.86875 6.5264 8.925 6.5264C9.2875 6.5264 9.66598 6.46807 10.05 6.3521C10.0819 6.34342 10.1103 6.32507 10.1313 6.29958C10.1523 6.27408 10.1649 6.24269 10.1674 6.20974C10.168 6.17679 10.1584 6.14446 10.1398 6.11722C10.1213 6.08997 10.0948 6.06916 10.0639 6.05765L9.04931 5.65696L10.6271 5.34515C10.6536 5.34037 10.6786 5.32921 10.6999 5.31264C10.7212 5.29607 10.7382 5.27458 10.7493 5.25001C10.7595 5.22609 10.7632 5.19992 10.7602 5.1741C10.7571 5.14827 10.7474 5.12369 10.7319 5.10279C10.6958 5.05557 9.8507 3.85071 8.40209 3.85071C6.42361 3.85071 4.83195 4.88057 4.83195 6.65557C4.83195 8.8014 9.91667 9.40349 12.191 9.40349C16.5465 9.40349 16.7674 9.98612 16.7674 10.1028C16.7674 10.7174 15.2208 11.0875 12.1701 11.2035C8.91181 11.3271 6.80625 12.2458 6.80625 13.5445C6.80625 14.7681 8.38403 15.4965 12.0826 15.9806C13.766 16.2007 15.7729 16.5708 15.7729 17.0827C15.7722 17.0889 15.5958 17.7653 12.1403 18.1972C8.91181 18.6021 8.49723 19.3618 8.49723 19.9778C8.49723 20.8118 9.6757 21.382 12.2063 21.7708C14.1361 22.0674 14.6771 22.7549 14.9368 23.0854C15.0465 23.2243 15.1333 23.3347 15.2833 23.3347C15.2972 23.3347 15.3319 23.3306 15.3451 23.3278C15.4889 23.2945 15.5681 23.1417 15.5576 22.9181C15.5507 22.7521 15.3986 21.2813 12.4181 20.8313C10.559 20.5507 10.4153 20.1035 10.4153 19.9729C10.4153 19.9076 10.4986 19.5702 12.1201 19.3431C12.3451 19.3264 17.6479 18.9083 17.6479 17.0375C17.6479 15.4986 14.5493 14.9382 11.816 14.4452C10.4382 14.1958 8.72361 13.8861 8.72361 13.5611C8.72431 13.2708 9.31528 12.8833 12.1333 12.6875Z" fill="white"/>
<path d="M8.54652 5.09863C8.83801 5.09863 9.0743 4.96121 9.0743 4.79169C9.0743 4.62216 8.83801 4.48474 8.54652 4.48474C8.25504 4.48474 8.01875 4.62216 8.01875 4.79169C8.01875 4.96121 8.25504 5.09863 8.54652 5.09863Z" fill="#49B4BB"/>
<path d="M11.1111 17.0875H11.8056V19.7764H11.1111V17.0875ZM13.1944 17.0875H13.8889V19.7764H13.1944V17.0875ZM11.1111 10.4688H11.8056V13.1576H11.1111V10.4688ZM13.1944 10.4688H13.8889V13.1576H13.1944V10.4688Z" fill="#49B4BB"/>
<path d="M11.8055 13.757L13.1944 14.0201V8.0889L11.8055 8.03057V13.757ZM13.1944 15.1313L11.8055 14.875V20.0535C12.1792 20.0986 12.8042 20.2458 13.1944 20.3438V15.1313ZM11.8055 21.066V22.9167C11.8055 23.1009 11.8787 23.2775 12.0089 23.4077C12.1392 23.538 12.3158 23.6111 12.5 23.6111C12.6842 23.6111 12.8608 23.538 12.991 23.4077C13.1213 23.2775 13.1944 23.1009 13.1944 22.9167V21.3493C12.5917 21.2111 12.2069 21.1563 11.8055 21.066ZM13.1944 7.24862V3.7014C13.1944 3.51722 13.1213 3.34059 12.991 3.21036C12.8608 3.08012 12.6842 3.00696 12.5 3.00696C12.3158 3.00696 12.1392 3.08012 12.0089 3.21036C11.8787 3.34059 11.8055 3.51722 11.8055 3.7014V7.18473L13.1944 7.24862Z" fill="white"/>
<path d="M34.3991 6.89267L37.4036 15.376L40.392 6.89267H43.5572V18.5893H41.1391V15.392L41.3801 9.87307L38.223 18.5893H36.5681L33.419 9.88111L33.66 15.392V18.5893H31.25V6.89267H34.3991Z" fill="#444444"/>
<path d="M49.51 18.75C48.2353 18.75 47.1963 18.359 46.393 17.5771C45.595 16.7952 45.196 15.7535 45.196 14.4521V14.2272C45.196 13.3542 45.3647 12.575 45.7021 11.8895C46.0395 11.1986 46.5162 10.6684 47.1321 10.2988C47.7533 9.92395 48.4603 9.7365 49.2529 9.7365C50.4418 9.7365 51.3764 10.1114 52.0566 10.8612C52.7421 11.611 53.0848 12.6741 53.0848 14.0505V14.9984H47.5498C47.6248 15.5661 47.8497 16.0213 48.2246 16.3641C48.6049 16.7068 49.0842 16.8782 49.6626 16.8782C50.557 16.8782 51.2559 16.5542 51.7593 15.9062L52.9001 17.1835C52.552 17.6762 52.0807 18.0618 51.4862 18.3403C50.8917 18.6134 50.233 18.75 49.51 18.75ZM49.2449 11.6163C48.7843 11.6163 48.4094 11.7716 48.1202 12.0823C47.8363 12.3929 47.6542 12.8374 47.5739 13.4158H50.8033V13.231C50.7926 12.7169 50.6534 12.3206 50.3856 12.0421C50.1178 11.7582 49.7376 11.6163 49.2449 11.6163Z" fill="#444444"/>
<path d="M54.0488 14.179C54.0488 12.824 54.3514 11.7449 54.9566 10.9415C55.5672 10.1382 56.4 9.7365 57.455 9.7365C58.3012 9.7365 59.0001 10.0525 59.5517 10.6844V6.25H61.8814V18.5893H59.7847L59.6722 17.6655C59.0938 18.3885 58.3494 18.75 57.4389 18.75C56.416 18.75 55.5939 18.3483 54.9727 17.545C54.3568 16.7363 54.0488 15.6143 54.0488 14.179ZM56.3705 14.3477C56.3705 15.1617 56.5124 15.7857 56.7963 16.2195C57.0801 16.6533 57.4925 16.8702 58.0334 16.8702C58.7511 16.8702 59.2572 16.5676 59.5517 15.9624V12.5321C59.2625 11.9269 58.7618 11.6244 58.0495 11.6244C56.9302 11.6244 56.3705 12.5321 56.3705 14.3477Z" fill="#444444"/>
<path d="M66.1311 18.5893H63.8014V9.89717H66.1311V18.5893ZM63.6648 7.64781C63.6648 7.2997 63.78 7.01317 64.0103 6.78824C64.2459 6.5633 64.5646 6.45084 64.9663 6.45084C65.3626 6.45084 65.6786 6.5633 65.9142 6.78824C66.1499 7.01317 66.2677 7.2997 66.2677 7.64781C66.2677 8.00129 66.1472 8.29049 65.9062 8.51542C65.6705 8.74036 65.3572 8.85283 64.9663 8.85283C64.5753 8.85283 64.2593 8.74036 64.0183 8.51542C63.7827 8.29049 63.6648 8.00129 63.6648 7.64781Z" fill="#444444"/>
<path d="M71.6661 16.8782C72.0946 16.8782 72.4427 16.7604 72.7105 16.5247C72.9783 16.2891 73.1175 15.9758 73.1282 15.5848H75.3053C75.2999 16.174 75.1392 16.7149 74.8233 17.2076C74.5073 17.6949 74.0735 18.0752 73.5219 18.3483C72.9756 18.6161 72.3704 18.75 71.7063 18.75C70.4638 18.75 69.4837 18.3564 68.7661 17.5691C68.0484 16.7765 67.6896 15.6839 67.6896 14.2915V14.1388C67.6896 12.7999 68.0457 11.7315 68.758 10.9335C69.4703 10.1355 70.4477 9.7365 71.6902 9.7365C72.7774 9.7365 73.6477 10.0471 74.3011 10.6684C74.9598 11.2843 75.2946 12.1064 75.3053 13.1346H73.1282C73.1175 12.6848 72.9783 12.3206 72.7105 12.0421C72.4427 11.7582 72.0892 11.6163 71.6501 11.6163C71.1091 11.6163 70.6994 11.8145 70.421 12.2108C70.1478 12.6018 70.0112 13.2391 70.0112 14.1228V14.3638C70.0112 15.2581 70.1478 15.9008 70.421 16.2918C70.6941 16.6827 71.1091 16.8782 71.6661 16.8782Z" fill="#444444"/>
<path d="M81.6677 18.5893C81.5606 18.3805 81.483 18.1207 81.4348 17.8101C80.8724 18.4367 80.1414 18.75 79.2416 18.75C78.3901 18.75 77.6832 18.5036 77.1208 18.0109C76.5638 17.5182 76.2853 16.897 76.2853 16.1472C76.2853 15.226 76.6254 14.5191 77.3056 14.0264C77.9911 13.5336 78.9792 13.2846 80.2699 13.2792H81.3384V12.7812C81.3384 12.3795 81.2339 12.0582 81.0251 11.8172C80.8216 11.5762 80.4975 11.4557 80.053 11.4557C79.6621 11.4557 79.3541 11.5494 79.1292 11.7368C78.9096 11.9243 78.7998 12.1813 78.7998 12.508H76.4781C76.4781 12.0046 76.6335 11.5387 76.9441 11.1102C77.2547 10.6818 77.6939 10.347 78.2616 10.106C78.8293 9.85968 79.4666 9.7365 80.1735 9.7365C81.2446 9.7365 82.0935 10.007 82.7201 10.5479C83.3521 11.0834 83.6681 11.8386 83.6681 12.8133V16.581C83.6734 17.4057 83.7886 18.0297 84.0135 18.4528V18.5893H81.6677ZM79.7478 16.9746C80.0905 16.9746 80.4065 16.8996 80.6957 16.7497C80.9849 16.5944 81.1991 16.3882 81.3384 16.1311V14.6369H80.4708C79.3086 14.6369 78.69 15.0386 78.615 15.8419L78.607 15.9785C78.607 16.2677 78.7088 16.506 78.9123 16.6934C79.1158 16.8809 79.3943 16.9746 79.7478 16.9746Z" fill="#444444"/>
<path d="M90.3358 12.0742C90.0198 12.0314 89.7413 12.01 89.5003 12.01C88.622 12.01 88.0463 12.3072 87.7731 12.9017V18.5893H85.4515V9.89717H87.6446L87.7089 10.9335C88.1748 10.1355 88.8202 9.7365 89.6449 9.7365C89.902 9.7365 90.143 9.77132 90.3679 9.84094L90.3358 12.0742Z" fill="#444444"/>
</svg>
